<?xml version="1.0" encoding="UTF-8" standalone="no"?>
<svg width="162px" height="40px" viewBox="0 0 162 40" version="1.1" xmlns="http://www.w3.org/2000/svg" xmlns:xlink="http://www.w3.org/1999/xlink" xmlns:sketch="http://www.bohemiancoding.com/sketch/ns">
    <!-- Generator: Sketch Beta 3.3.2 (12041) - http://www.bohemiancoding.com/sketch -->
    <title>presskit-button</title>
    <desc>Created with Sketch Beta.</desc>
    <defs></defs>
    <g id="Page-1" stroke="none" stroke-width="1" fill="none" fill-rule="evenodd" sketch:type="MSPage">
        <g id="Tablet-Portrait-Copy" sketch:type="MSArtboardGroup" transform="translate(-317.000000, -291.000000)">
            <g id="Header" sketch:type="MSLayerGroup" transform="translate(179.000000, 74.000000)">
                <g id="presskit-button" transform="translate(137.500000, 217.000000)">
                    <path d="M156.34127,40 L6.31761048,40 C3.20038792,40 0.663085938,37.872 0.663085938,35.267 L0.663085938,4.726 C0.663085938,2.12 3.20038792,0 6.31761048,0 L156.34127,0 C159.457297,0 162.084277,2.12 162.084277,4.726 L162.084277,35.267 C162.084277,37.872 159.457297,40 156.34127,40 L156.34127,40 L156.34127,40 Z" id="Shape" fill="#A6A6A6" sketch:type="MSShapeGroup"></path>
                    <path d="M160.926828,35.268 C160.926828,37.384 158.877376,39.098 156.342466,39.098 L6.31761048,39.098 C3.78389564,39.098 1.72727009,37.384 1.72727009,35.268 L1.72727009,4.725 C1.72727009,2.61 3.78389564,0.89 6.31761048,0.89 L156.34127,0.89 C158.877376,0.89 160.925632,2.61 160.925632,4.725 L160.926828,35.268 L160.926828,35.268 Z" id="Shape" fill="#000000" sketch:type="MSShapeGroup"></path>
                    <text id="Download-PressKit" fill="#A6A6A6" sketch:type="MSTextLayer" font-family="Lucida Grande" font-size="14" font-weight="normal">
                        <tspan x="18" y="24.7119141" fill="#FFFFFF">Download PressKit</tspan>
                    </text>
                </g>
            </g>
        </g>
    </g>
</svg>